[Header]
FileType HTR
DataType HTRS
FileVersion 1
NumSegments 22
NumFrames 5
DataFrameRate 24
EulerRotationOrder ZYX
CalibrationUnits mm
RotationUnits Degrees
GlobalAxisofGravity Y
BoneLengthAxis Y
ScaleFactor 1.0
[SegmentNames&Hierarchy]
reference	GLOBAL
Hips	reference
Spine	Hips
Spine1	Spine
Neck	Spine1
Head	Neck
LeftShoulder	Spine1
LeftArm	LeftShoulder
LeftForeArm	LeftArm
LeftHand	LeftForeArm
RightShoulder	Spine1
RightArm	RightShoulder
RightForeArm	RightArm
RightHand	RightForeArm
LeftUpLeg	Hips
LeftLeg	LeftUpLeg
LeftFoot	LeftLeg
LeftToeBase	LeftFoot
RightUpLeg	Hips
RightLeg	RightUpLeg
RightFoot	RightLeg
RightToeBase	RightFoot
[BasePosition]
reference	0	0	0	0	0	0	1
Hips	0	0	0	0	0	0	1
Spine	0	0	0	-0	-90	0	1
Spine1	0	0	0	0	0	0	1
Neck	0	0	0	82.64767223	-82.64767223	-90	1
Head	0	0	0	-0	-90	0	1
LeftShoulder	0	0	0	0	0	0	1
LeftArm	0	0	0	0	0	0	1
LeftForeArm	0	0	0	0	0	0	1
LeftHand	0	0	0	0	0	0	1
RightShoulder	0	0	0	0	-0	180	1
RightArm	0	0	0	0	-0	180	1
RightForeArm	0	0	0	0	-0	180	1
RightHand	0	0	0	0	-0	180	1
LeftUpLeg	0	0	0	-0	90	0	1
LeftLeg	0	0	0	-0	90	0	1
LeftFoot	0	0	0	-23.42853957	23.42853957	-90	1
LeftToeBase	0	0	0	0	-0	-90	1
RightUpLeg	0	0	0	-0	90	0	1
RightLeg	0	0	0	-0	90	0	1
RightFoot	0	0	0	-23.42853957	23.42853957	-90	1
RightToeBase	0	0	0	0	-0	-90	1
[reference]
10	0	0	0	0	-0	0	1.0
11	0	0	0	0	-0	0	1.0
12	0	0	0	0	-0	0	1.0
13	0	0	0	0	-0	0	1.0
14	0	0	0	0	-0	0	1.0
[Hips]
10	4.998292446	-0.6938899755	6.903953552	17.05479813	-0.1445631236	-98.37178802	1.0
11	4.811127663	-0.6938899755	7.15515852	14.90665817	-0.2090235353	-99.29977417	1.0
12	4.592782974	-0.6938899755	7.648728371	12.38867569	-0.2107991278	-100.9043121	1.0
13	4.402309895	-0.6838444471	8.178500175	10.50424004	-0.3155714571	-101.3079071	1.0
14	4.224593639	-0.6703872085	8.903800011	8.470192909	-0.5524997115	-100.0687027	1.0
[Spine]
10	0	0	0.7457100153	25.37402153	88.7585144	24.88469887	1.0
11	0	0	0.7457100153	54.72109985	87.98001099	54.89898682	1.0
12	0	0	0.7457100153	59.46509171	86.74803925	60.32734299	1.0
13	0	0	0.7457100153	55.41876984	86.20432281	57.74204636	1.0
14	0	0	0.7457100153	54.79112244	87.2686615	57.57251358	1.0
[Spine1]
10	0	0	2.140589952	-4.333461761	2.226533413	0.11053285	1.0
11	0	0	2.140589952	-5.446867943	2.741002083	0.442869544	1.0
12	0	0	2.140589952	-5.402614594	2.937567234	0.8221028447	1.0
13	0	0	2.140589952	-3.411746264	3.06850028	0.9864882231	1.0
14	0	0	2.140589952	-2.547616959	1.891697288	0.7337777615	1.0
[Neck]
10	0	0	2.32246995	52.64772034	79.18091583	74.83152771	1.0
11	0	0	2.32246995	56.85870361	79.54884338	72.21027374	1.0
12	0	0	2.32246995	71.92100525	80.12988281	81.40089417	1.0
13	0	0	2.32246995	73.8578186	80.00466156	78.42544556	1.0
14	0	0	2.32246995	78.55096436	79.91423798	75.66836548	1.0
[Head]
10	0	-0.1818799973	1.409579992	-83.57893372	92.98252106	-74.30802917	1.0
11	0	-0.1818799973	1.409579992	-81.57109833	92.60710144	-72.88806152	1.0
12	0	-0.1818799973	1.409579992	-105.6328125	92.3980484	-97.07148743	1.0
13	0	-0.1818799973	1.409579992	-65.40209198	93.15785217	-55.63896942	1.0
14	0	-0.1818799973	1.409579992	-57.41381836	93.83499146	-47.51634979	1.0
[LeftShoulder]
10	0.3668199778	0.02662999928	1.946700096	-15.48815632	-5.632374763	-6.710679054	1.0
11	0.3668199778	0.02662999928	1.946700096	-15.55286503	-6.596193314	-7.317975044	1.0
12	0.3668199778	0.02662999928	1.946700096	-14.27917194	-8.711585999	-6.779936314	1.0
13	0.3668199778	0.02662999928	1.946700096	-12.82258892	-10.60104465	-7.348465443	1.0
14	0.3668199778	0.02662999928	1.946700096	-10.03307724	-9.468958855	-8.071753502	1.0
[LeftArm]
10	1.140689969	0	0	39.44190979	73.48750305	2.551641703	1.0
11	1.140689969	0	0	27.74370956	64.81176758	-8.778596878	1.0
12	1.140689969	0	0	22.08871841	59.17974091	-11.57443714	1.0
13	1.140689969	0	0	22.35062218	55.73261642	-11.1664381	1.0
14	1.140689969	0	0	24.24896622	52.99767303	-11.56472301	1.0
[LeftForeArm]
10	2.749800205	0	0	-8.320342064	-3.907365084	-43.18598938	1.0
11	2.749800205	0	0	-4.553544044	-10.04785061	-64.69950867	1.0
12	2.749800205	0	0	-1.13298595	-12.49452591	-81.75708771	1.0
13	2.749800205	0	0	6.808931828	-19.27172852	-97.25691986	1.0
14	2.749800205	0	0	18.02228546	-24.57551765	-113.6124878	1.0
[LeftHand]
10	2.295179844	0	0	-9.241851807	-6.767233372	-13.9750824	1.0
11	2.295179844	0	0	-9.72977829	-9.099096298	-12.87796116	1.0
12	2.295179844	0	0	-11.00374317	-9.378230095	-11.56931019	1.0
13	2.295179844	0	0	-14.07456112	-9.629270554	-11.11598206	1.0
14	2.295179844	0	0	-17.87080765	-9.938716888	-11.98877716	1.0
[RightShoulder]
10	-0.3601199985	0.02662999928	1.946700096	-13.86079788	3.797647476	-170.4774475	1.0
11	-0.3601199985	0.02662999928	1.946700096	-13.80699348	4.816609859	-169.3756714	1.0
12	-0.3601199985	0.02662999928	1.946700096	-13.27988529	8.036243439	-168.0044861	1.0
13	-0.3601199985	0.02662999928	1.946700096	-12.02884483	10.1947794	-166.5445404	1.0
14	-0.3601199985	0.02662999928	1.946700096	-9.657193184	8.156986237	-164.95784	1.0
[RightArm]
10	-1.140689969	0	0	-147.6368103	-98.80973816	19.09564972	1.0
11	-1.140689969	0	0	-157.4693604	-103.3840332	27.41146851	1.0
12	-1.140689969	0	0	-155.035553	-105.595459	23.27939034	1.0
13	-1.140689969	0	0	-151.2809448	-108.2140656	17.66462708	1.0
14	-1.140689969	0	0	-144.8252716	-113.6142426	10.84214973	1.0
[RightForeArm]
10	-2.749800205	0	0	0.1891661286	15.1967926	-151.4992065	1.0
11	-2.749800205	0	0	5.013553619	25.42187881	-133.8209839	1.0
12	-2.749800205	0	0	15.82469845	31.64072227	-112.6120605	1.0
13	-2.749800205	0	0	29.53284073	35.61310196	-90.42241669	1.0
14	-2.749800205	0	0	45.84947205	34.69851303	-66.48184967	1.0
[RightHand]
10	-2.295179844	0	0	-2.735156059	13.34022713	-170.0064392	1.0
11	-2.295179844	0	0	-4.360975266	13.04813957	-167.9839478	1.0
12	-2.295179844	0	0	-4.689322948	10.84313679	-169.0807953	1.0
13	-2.295179844	0	0	-5.009774208	10.23437214	-170.7778473	1.0
14	-2.295179844	0	0	-4.259720802	13.88129044	-173.4051361	1.0
[LeftUpLeg]
10	0.9094099998	0	0	-57.0660553	-93.04853058	6.097604275	1.0
11	0.9094099998	0	0	-98.07875061	-95.3937149	53.8408165	1.0
12	0.9094099998	0	0	-82.63780212	-96.28691101	49.86678696	1.0
13	0.9094099998	0	0	-74.52436829	-96.4197998	52.44910431	1.0
14	0.9094099998	0	0	-75.71062469	-97.39918518	61.21641922	1.0
[LeftLeg]
10	0	0	-4.498080254	78.32961273	-69.8084259	0.03080096096	1.0
11	0	0	-4.498080254	73.4883194	-74.07597351	-1.746533871	1.0
12	0	0	-4.498080254	59.75583267	-75.39981842	-4.084112644	1.0
13	0	0	-4.498080254	38.9800148	-79.46511841	-0.1927677095	1.0
14	0	0	-4.498080254	15.53129482	-84.30632782	11.65826035	1.0
[LeftFoot]
10	0	0	-3.729400158	-73.74156189	2.046800613	113.508667	1.0
11	0	0	-3.729400158	-72.72175598	1.493022919	114.610817	1.0
12	0	0	-3.729400158	-69.92114258	-1.993267536	117.1753387	1.0
13	0	0	-3.729400158	-61.16482925	-9.207580566	117.1677551	1.0
14	0	0	-3.729400158	-39.73128128	-16.49862289	110.8637009	1.0
[LeftToeBase]
10	0	-1.364109993	-0.5911099911	9.999999975e-007	0	0	1.0
11	0	-1.364109993	-0.5911099911	9.999999975e-007	0	0	1.0
12	0	-1.364109993	-0.5911099911	9.999999975e-007	0	0	1.0
13	0	-1.364109993	-0.5911099911	9.999999975e-007	0	0	1.0
14	0	-1.364109993	-0.5911099911	9.999999975e-007	0	0	1.0
[RightUpLeg]
10	-0.9094099998	0	0	-93.10458374	-115.1741486	42.29019547	1.0
11	-0.9094099998	0	0	-83.42665863	-110.6189957	40.33963394	1.0
12	-0.9094099998	0	0	-83.01864624	-108.5806122	50.10077667	1.0
13	-0.9094099998	0	0	-87.93708038	-111.3231659	64.88101196	1.0
14	-0.9094099998	0	0	-90.82285309	-113.6587448	78.22184753	1.0
[RightLeg]
10	0	0	-4.498080254	38.4164772	-64.89987183	37.40816498	1.0
11	0	0	-4.498080254	41.20107269	-64.51630402	26.35239983	1.0
12	0	0	-4.498080254	30.83127785	-71.37351227	23.95071411	1.0
13	0	0	-4.498080254	17.20349312	-76.45822906	22.20915985	1.0
14	0	0	-4.498080254	11.98934269	-81.317276	9.66988945	1.0
[RightFoot]
10	0	0	-3.729400158	-69.87168884	-38.54545212	100.1522369	1.0
11	0	0	-3.729400158	-68.6227951	-38.78659058	97.86719513	1.0
12	0	0	-3.729400158	-60.93954468	-36.73473358	90.52407837	1.0
13	0	0	-3.729400158	-51.3172226	-30.96105766	87.70707703	1.0
14	0	0	-3.729400158	-32.54724121	-24.70704651	89.90032196	1.0
[RightToeBase]
10	0	-1.364109993	-0.5911099911	9.999999975e-007	0	0	1.0
11	0	-1.364109993	-0.5911099911	9.999999975e-007	0	0	1.0
12	0	-1.364109993	-0.5911099911	9.999999975e-007	0	0	1.0
13	0	-1.364109993	-0.5911099911	9.999999975e-007	0	0	1.0
14	0	-1.364109993	-0.5911099911	9.999999975e-007	0	0	1.0
[EndOfFile]
